<svg width="24" height="24" viewBox="0 0 24 24" fill="none" xmlns="http://www.w3.org/2000/svg">
<path d="M2.32014 10.8319C2.54161 8.97479 3.30121 7.22293 4.50545 5.79192C4.63869 5.63125 4.80401 5.50015 4.99082 5.40701C5.17762 5.31388 5.38182 5.26076 5.59033 5.25106C5.79884 5.24135 6.00708 5.27527 6.20173 5.35065C6.39639 5.42602 6.57316 5.54119 6.72076 5.6888L9.31482 8.33817C9.56465 8.58742 9.71774 8.91736 9.74676 9.26906C9.77579 9.62077 9.67885 9.97134 9.47326 10.2582C9.31753 10.4791 9.20026 10.7247 9.12638 10.9847C9.10292 11.0614 9.05547 11.1286 8.99101 11.1764C8.92656 11.2241 8.84848 11.2499 8.76826 11.25L2.69326 11.25C2.64032 11.2501 2.58797 11.239 2.53964 11.2174C2.49131 11.1958 2.4481 11.1642 2.41285 11.1247C2.37761 11.0852 2.35112 11.0387 2.33514 10.9883C2.31916 10.9378 2.31405 10.8845 2.32014 10.8319ZM12.8801 2.25567C12.6729 2.2376 12.4643 2.26282 12.2674 2.32971C12.0704 2.3966 11.8896 2.50372 11.7363 2.64424C11.583 2.78477 11.4605 2.95564 11.3768 3.14601C11.2931 3.33637 11.2498 3.54208 11.2498 3.75005V7.56286C11.2472 7.91665 11.3709 8.25978 11.5986 8.53059C11.8262 8.8014 12.143 8.98214 12.492 9.04036C13.1491 9.14877 13.7515 9.47277 14.2042 9.96129C14.6569 10.4498 14.9341 11.0751 14.9922 11.7386C15.0504 12.402 14.886 13.066 14.5252 13.6258C14.1643 14.1856 13.6275 14.6094 12.9992 14.8304C12.9261 14.8572 12.863 14.9059 12.8184 14.9697C12.7738 15.0336 12.7498 15.1096 12.7498 15.1875L12.7498 21.3029C12.7495 21.356 12.7604 21.4085 12.7819 21.4571C12.8034 21.5056 12.8349 21.5491 12.8744 21.5845C12.914 21.62 12.9606 21.6466 13.0112 21.6627C13.0618 21.6788 13.1152 21.684 13.1679 21.6779C15.5078 21.389 17.6646 20.2647 19.2415 18.512C20.8183 16.7593 21.7091 14.4961 21.7498 12.1388C21.8201 7.04911 17.9239 2.70755 12.8801 2.25567ZM10.992 14.8275C10.5728 14.678 10.1921 14.4371 9.8775 14.1222C9.56293 13.8073 9.32237 13.4263 9.17326 13.0069C9.14769 12.9325 9.09972 12.8679 9.03592 12.8219C8.97213 12.7759 8.89565 12.7508 8.81701 12.75L2.69232 12.75C2.63932 12.7497 2.58684 12.7606 2.53836 12.782C2.48988 12.8035 2.44649 12.8349 2.41105 12.8744C2.37562 12.9138 2.34894 12.9603 2.33278 13.0107C2.31663 13.0612 2.31136 13.1146 2.31732 13.1672C2.57993 15.3342 3.56141 17.3506 5.10489 18.894C6.64837 20.4375 8.66474 21.419 10.8317 21.6816C10.8844 21.6876 10.9377 21.6823 10.9882 21.6661C11.0387 21.65 11.0852 21.6233 11.1246 21.5879C11.164 21.5524 11.1955 21.5091 11.2169 21.4606C11.2383 21.4121 11.2492 21.3596 11.2489 21.3066L11.2489 15.1875C11.249 15.1082 11.2243 15.0309 11.1783 14.9663C11.1322 14.9017 11.0671 14.8532 10.992 14.8275Z" fill="#277C78"/>
</svg>
